<?xml version="1.0" encoding="utf-8" standalone="no"?>
<!DOCTYPE svg PUBLIC "-//W3C//DTD SVG 1.1//EN"
  "http://www.w3.org/Graphics/SVG/1.1/DTD/svg11.dtd">
<!-- Created with matplotlib (https://matplotlib.org/) -->
<svg height="316.55625pt" version="1.1" viewBox="0 0 735.323438 316.55625" width="735.323438pt" xmlns="http://www.w3.org/2000/svg" xmlns:xlink="http://www.w3.org/1999/xlink">
 <defs>
  <style type="text/css">
*{stroke-linecap:butt;stroke-linejoin:round;}
  </style>
 </defs>
 <g id="figure_1">
  <g id="patch_1">
   <path d="M 0 316.55625 
L 735.323438 316.55625 
L 735.323438 0 
L 0 0 
z
" style="fill:none;"/>
  </g>
  <g id="axes_1">
   <g id="patch_2">
    <path d="M 58.523438 279 
L 728.123438 279 
L 728.123438 7.2 
L 58.523438 7.2 
z
" style="fill:#ffffff;"/>
   </g>
   <g id="matplotlib.axis_1">
    <g id="xtick_1">
     <g id="line2d_1">
      <defs>
       <path d="M 0 0 
L 0 3.5 
" id="me744d70713" style="stroke:#000000;stroke-width:0.8;"/>
      </defs>
      <g>
       <use style="stroke:#000000;stroke-width:0.8;" x="88.959801" xlink:href="#me744d70713" y="279"/>
      </g>
     </g>
     <g id="text_1">
      <!-- 0 -->
      <defs>
       <path d="M 31.78125 66.40625 
Q 24.171875 66.40625 20.328125 58.90625 
Q 16.5 51.421875 16.5 36.375 
Q 16.5 21.390625 20.328125 13.890625 
Q 24.171875 6.390625 31.78125 6.390625 
Q 39.453125 6.390625 43.28125 13.890625 
Q 47.125 21.390625 47.125 36.375 
Q 47.125 51.421875 43.28125 58.90625 
Q 39.453125 66.40625 31.78125 66.40625 
z
M 31.78125 74.21875 
Q 44.046875 74.21875 50.515625 64.515625 
Q 56.984375 54.828125 56.984375 36.375 
Q 56.984375 17.96875 50.515625 8.265625 
Q 44.046875 -1.421875 31.78125 -1.421875 
Q 19.53125 -1.421875 13.0625 8.265625 
Q 6.59375 17.96875 6.59375 36.375 
Q 6.59375 54.828125 13.0625 64.515625 
Q 19.53125 74.21875 31.78125 74.21875 
z
" id="DejaVuSans-48"/>
      </defs>
      <g transform="translate(85.778551 293.598437)scale(0.1 -0.1)">
       <use xlink:href="#DejaVuSans-48"/>
      </g>
     </g>
    </g>
    <g id="xtick_2">
     <g id="line2d_2">
      <g>
       <use style="stroke:#000000;stroke-width:0.8;" x="210.705256" xlink:href="#me744d70713" y="279"/>
      </g>
     </g>
     <g id="text_2">
      <!-- 2 -->
      <defs>
       <path d="M 19.1875 8.296875 
L 53.609375 8.296875 
L 53.609375 0 
L 7.328125 0 
L 7.328125 8.296875 
Q 12.9375 14.109375 22.625 23.890625 
Q 32.328125 33.6875 34.8125 36.53125 
Q 39.546875 41.84375 41.421875 45.53125 
Q 43.3125 49.21875 43.3125 52.78125 
Q 43.3125 58.59375 39.234375 62.25 
Q 35.15625 65.921875 28.609375 65.921875 
Q 23.96875 65.921875 18.8125 64.3125 
Q 13.671875 62.703125 7.8125 59.421875 
L 7.8125 69.390625 
Q 13.765625 71.78125 18.9375 73 
Q 24.125 74.21875 28.421875 74.21875 
Q 39.75 74.21875 46.484375 68.546875 
Q 53.21875 62.890625 53.21875 53.421875 
Q 53.21875 48.921875 51.53125 44.890625 
Q 49.859375 40.875 45.40625 35.40625 
Q 44.1875 33.984375 37.640625 27.21875 
Q 31.109375 20.453125 19.1875 8.296875 
z
" id="DejaVuSans-50"/>
      </defs>
      <g transform="translate(207.524006 293.598437)scale(0.1 -0.1)">
       <use xlink:href="#DejaVuSans-50"/>
      </g>
     </g>
    </g>
    <g id="xtick_3">
     <g id="line2d_3">
      <g>
       <use style="stroke:#000000;stroke-width:0.8;" x="332.45071" xlink:href="#me744d70713" y="279"/>
      </g>
     </g>
     <g id="text_3">
      <!-- 4 -->
      <defs>
       <path d="M 37.796875 64.3125 
L 12.890625 25.390625 
L 37.796875 25.390625 
z
M 35.203125 72.90625 
L 47.609375 72.90625 
L 47.609375 25.390625 
L 58.015625 25.390625 
L 58.015625 17.1875 
L 47.609375 17.1875 
L 47.609375 0 
L 37.796875 0 
L 37.796875 17.1875 
L 4.890625 17.1875 
L 4.890625 26.703125 
z
" id="DejaVuSans-52"/>
      </defs>
      <g transform="translate(329.26946 293.598437)scale(0.1 -0.1)">
       <use xlink:href="#DejaVuSans-52"/>
      </g>
     </g>
    </g>
    <g id="xtick_4">
     <g id="line2d_4">
      <g>
       <use style="stroke:#000000;stroke-width:0.8;" x="454.196165" xlink:href="#me744d70713" y="279"/>
      </g>
     </g>
     <g id="text_4">
      <!-- 6 -->
      <defs>
       <path d="M 33.015625 40.375 
Q 26.375 40.375 22.484375 35.828125 
Q 18.609375 31.296875 18.609375 23.390625 
Q 18.609375 15.53125 22.484375 10.953125 
Q 26.375 6.390625 33.015625 6.390625 
Q 39.65625 6.390625 43.53125 10.953125 
Q 47.40625 15.53125 47.40625 23.390625 
Q 47.40625 31.296875 43.53125 35.828125 
Q 39.65625 40.375 33.015625 40.375 
z
M 52.59375 71.296875 
L 52.59375 62.3125 
Q 48.875 64.0625 45.09375 64.984375 
Q 41.3125 65.921875 37.59375 65.921875 
Q 27.828125 65.921875 22.671875 59.328125 
Q 17.53125 52.734375 16.796875 39.40625 
Q 19.671875 43.65625 24.015625 45.921875 
Q 28.375 48.1875 33.59375 48.1875 
Q 44.578125 48.1875 50.953125 41.515625 
Q 57.328125 34.859375 57.328125 23.390625 
Q 57.328125 12.15625 50.6875 5.359375 
Q 44.046875 -1.421875 33.015625 -1.421875 
Q 20.359375 -1.421875 13.671875 8.265625 
Q 6.984375 17.96875 6.984375 36.375 
Q 6.984375 53.65625 15.1875 63.9375 
Q 23.390625 74.21875 37.203125 74.21875 
Q 40.921875 74.21875 44.703125 73.484375 
Q 48.484375 72.75 52.59375 71.296875 
z
" id="DejaVuSans-54"/>
      </defs>
      <g transform="translate(451.014915 293.598437)scale(0.1 -0.1)">
       <use xlink:href="#DejaVuSans-54"/>
      </g>
     </g>
    </g>
    <g id="xtick_5">
     <g id="line2d_5">
      <g>
       <use style="stroke:#000000;stroke-width:0.8;" x="575.941619" xlink:href="#me744d70713" y="279"/>
      </g>
     </g>
     <g id="text_5">
      <!-- 8 -->
      <defs>
       <path d="M 31.78125 34.625 
Q 24.75 34.625 20.71875 30.859375 
Q 16.703125 27.09375 16.703125 20.515625 
Q 16.703125 13.921875 20.71875 10.15625 
Q 24.75 6.390625 31.78125 6.390625 
Q 38.8125 6.390625 42.859375 10.171875 
Q 46.921875 13.96875 46.921875 20.515625 
Q 46.921875 27.09375 42.890625 30.859375 
Q 38.875 34.625 31.78125 34.625 
z
M 21.921875 38.8125 
Q 15.578125 40.375 12.03125 44.71875 
Q 8.5 49.078125 8.5 55.328125 
Q 8.5 64.0625 14.71875 69.140625 
Q 20.953125 74.21875 31.78125 74.21875 
Q 42.671875 74.21875 48.875 69.140625 
Q 55.078125 64.0625 55.078125 55.328125 
Q 55.078125 49.078125 51.53125 44.71875 
Q 48 40.375 41.703125 38.8125 
Q 48.828125 37.15625 52.796875 32.3125 
Q 56.78125 27.484375 56.78125 20.515625 
Q 56.78125 9.90625 50.3125 4.234375 
Q 43.84375 -1.421875 31.78125 -1.421875 
Q 19.734375 -1.421875 13.25 4.234375 
Q 6.78125 9.90625 6.78125 20.515625 
Q 6.78125 27.484375 10.78125 32.3125 
Q 14.796875 37.15625 21.921875 38.8125 
z
M 18.3125 54.390625 
Q 18.3125 48.734375 21.84375 45.5625 
Q 25.390625 42.390625 31.78125 42.390625 
Q 38.140625 42.390625 41.71875 45.5625 
Q 45.3125 48.734375 45.3125 54.390625 
Q 45.3125 60.0625 41.71875 63.234375 
Q 38.140625 66.40625 31.78125 66.40625 
Q 25.390625 66.40625 21.84375 63.234375 
Q 18.3125 60.0625 18.3125 54.390625 
z
" id="DejaVuSans-56"/>
      </defs>
      <g transform="translate(572.760369 293.598437)scale(0.1 -0.1)">
       <use xlink:href="#DejaVuSans-56"/>
      </g>
     </g>
    </g>
    <g id="xtick_6">
     <g id="line2d_6">
      <g>
       <use style="stroke:#000000;stroke-width:0.8;" x="697.687074" xlink:href="#me744d70713" y="279"/>
      </g>
     </g>
     <g id="text_6">
      <!-- 10 -->
      <defs>
       <path d="M 12.40625 8.296875 
L 28.515625 8.296875 
L 28.515625 63.921875 
L 10.984375 60.40625 
L 10.984375 69.390625 
L 28.421875 72.90625 
L 38.28125 72.90625 
L 38.28125 8.296875 
L 54.390625 8.296875 
L 54.390625 0 
L 12.40625 0 
z
" id="DejaVuSans-49"/>
      </defs>
      <g transform="translate(691.324574 293.598437)scale(0.1 -0.1)">
       <use xlink:href="#DejaVuSans-49"/>
       <use x="63.623047" xlink:href="#DejaVuSans-48"/>
      </g>
     </g>
    </g>
    <g id="text_7">
     <!-- X -->
     <defs>
      <path d="M 6.296875 72.90625 
L 16.890625 72.90625 
L 35.015625 45.796875 
L 53.21875 72.90625 
L 63.8125 72.90625 
L 40.375 37.890625 
L 65.375 0 
L 54.78125 0 
L 34.28125 31 
L 13.625 0 
L 2.984375 0 
L 29 38.921875 
z
" id="DejaVuSans-88"/>
     </defs>
     <g transform="translate(389.898438 307.276562)scale(0.1 -0.1)">
      <use xlink:href="#DejaVuSans-88"/>
     </g>
    </g>
   </g>
   <g id="matplotlib.axis_2">
    <g id="ytick_1">
     <g id="line2d_7">
      <defs>
       <path d="M 0 0 
L -3.5 0 
" id="m44fcea501d" style="stroke:#000000;stroke-width:0.8;"/>
      </defs>
      <g>
       <use style="stroke:#000000;stroke-width:0.8;" x="58.523438" xlink:href="#m44fcea501d" y="276.950739"/>
      </g>
     </g>
     <g id="text_8">
      <!-- −1.75 -->
      <defs>
       <path d="M 10.59375 35.5 
L 73.1875 35.5 
L 73.1875 27.203125 
L 10.59375 27.203125 
z
" id="DejaVuSans-8722"/>
       <path d="M 10.6875 12.40625 
L 21 12.40625 
L 21 0 
L 10.6875 0 
z
" id="DejaVuSans-46"/>
       <path d="M 8.203125 72.90625 
L 55.078125 72.90625 
L 55.078125 68.703125 
L 28.609375 0 
L 18.3125 0 
L 43.21875 64.59375 
L 8.203125 64.59375 
z
" id="DejaVuSans-55"/>
       <path d="M 10.796875 72.90625 
L 49.515625 72.90625 
L 49.515625 64.59375 
L 19.828125 64.59375 
L 19.828125 46.734375 
Q 21.96875 47.46875 24.109375 47.828125 
Q 26.265625 48.1875 28.421875 48.1875 
Q 40.625 48.1875 47.75 41.5 
Q 54.890625 34.8125 54.890625 23.390625 
Q 54.890625 11.625 47.5625 5.09375 
Q 40.234375 -1.421875 26.90625 -1.421875 
Q 22.3125 -1.421875 17.546875 -0.640625 
Q 12.796875 0.140625 7.71875 1.703125 
L 7.71875 11.625 
Q 12.109375 9.234375 16.796875 8.0625 
Q 21.484375 6.890625 26.703125 6.890625 
Q 35.15625 6.890625 40.078125 11.328125 
Q 45.015625 15.765625 45.015625 23.390625 
Q 45.015625 31 40.078125 35.4375 
Q 35.15625 39.890625 26.703125 39.890625 
Q 22.75 39.890625 18.8125 39.015625 
Q 14.890625 38.140625 10.796875 36.28125 
z
" id="DejaVuSans-53"/>
      </defs>
      <g transform="translate(20.878125 280.749958)scale(0.1 -0.1)">
       <use xlink:href="#DejaVuSans-8722"/>
       <use x="83.789062" xlink:href="#DejaVuSans-49"/>
       <use x="147.412109" xlink:href="#DejaVuSans-46"/>
       <use x="179.199219" xlink:href="#DejaVuSans-55"/>
       <use x="242.822266" xlink:href="#DejaVuSans-53"/>
      </g>
     </g>
    </g>
    <g id="ytick_2">
     <g id="line2d_8">
      <g>
       <use style="stroke:#000000;stroke-width:0.8;" x="58.523438" xlink:href="#m44fcea501d" y="241.663441"/>
      </g>
     </g>
     <g id="text_9">
      <!-- −1.50 -->
      <g transform="translate(20.878125 245.46266)scale(0.1 -0.1)">
       <use xlink:href="#DejaVuSans-8722"/>
       <use x="83.789062" xlink:href="#DejaVuSans-49"/>
       <use x="147.412109" xlink:href="#DejaVuSans-46"/>
       <use x="179.199219" xlink:href="#DejaVuSans-53"/>
       <use x="242.822266" xlink:href="#DejaVuSans-48"/>
      </g>
     </g>
    </g>
    <g id="ytick_3">
     <g id="line2d_9">
      <g>
       <use style="stroke:#000000;stroke-width:0.8;" x="58.523438" xlink:href="#m44fcea501d" y="206.376142"/>
      </g>
     </g>
     <g id="text_10">
      <!-- −1.25 -->
      <g transform="translate(20.878125 210.175361)scale(0.1 -0.1)">
       <use xlink:href="#DejaVuSans-8722"/>
       <use x="83.789062" xlink:href="#DejaVuSans-49"/>
       <use x="147.412109" xlink:href="#DejaVuSans-46"/>
       <use x="179.199219" xlink:href="#DejaVuSans-50"/>
       <use x="242.822266" xlink:href="#DejaVuSans-53"/>
      </g>
     </g>
    </g>
    <g id="ytick_4">
     <g id="line2d_10">
      <g>
       <use style="stroke:#000000;stroke-width:0.8;" x="58.523438" xlink:href="#m44fcea501d" y="171.088844"/>
      </g>
     </g>
     <g id="text_11">
      <!-- −1.00 -->
      <g transform="translate(20.878125 174.888062)scale(0.1 -0.1)">
       <use xlink:href="#DejaVuSans-8722"/>
       <use x="83.789062" xlink:href="#DejaVuSans-49"/>
       <use x="147.412109" xlink:href="#DejaVuSans-46"/>
       <use x="179.199219" xlink:href="#DejaVuSans-48"/>
       <use x="242.822266" xlink:href="#DejaVuSans-48"/>
      </g>
     </g>
    </g>
    <g id="ytick_5">
     <g id="line2d_11">
      <g>
       <use style="stroke:#000000;stroke-width:0.8;" x="58.523438" xlink:href="#m44fcea501d" y="135.801545"/>
      </g>
     </g>
     <g id="text_12">
      <!-- −0.75 -->
      <g transform="translate(20.878125 139.600764)scale(0.1 -0.1)">
       <use xlink:href="#DejaVuSans-8722"/>
       <use x="83.789062" xlink:href="#DejaVuSans-48"/>
       <use x="147.412109" xlink:href="#DejaVuSans-46"/>
       <use x="179.199219" xlink:href="#DejaVuSans-55"/>
       <use x="242.822266" xlink:href="#DejaVuSans-53"/>
      </g>
     </g>
    </g>
    <g id="ytick_6">
     <g id="line2d_12">
      <g>
       <use style="stroke:#000000;stroke-width:0.8;" x="58.523438" xlink:href="#m44fcea501d" y="100.514246"/>
      </g>
     </g>
     <g id="text_13">
      <!-- −0.50 -->
      <g transform="translate(20.878125 104.313465)scale(0.1 -0.1)">
       <use xlink:href="#DejaVuSans-8722"/>
       <use x="83.789062" xlink:href="#DejaVuSans-48"/>
       <use x="147.412109" xlink:href="#DejaVuSans-46"/>
       <use x="179.199219" xlink:href="#DejaVuSans-53"/>
       <use x="242.822266" xlink:href="#DejaVuSans-48"/>
      </g>
     </g>
    </g>
    <g id="ytick_7">
     <g id="line2d_13">
      <g>
       <use style="stroke:#000000;stroke-width:0.8;" x="58.523438" xlink:href="#m44fcea501d" y="65.226948"/>
      </g>
     </g>
     <g id="text_14">
      <!-- −0.25 -->
      <g transform="translate(20.878125 69.026167)scale(0.1 -0.1)">
       <use xlink:href="#DejaVuSans-8722"/>
       <use x="83.789062" xlink:href="#DejaVuSans-48"/>
       <use x="147.412109" xlink:href="#DejaVuSans-46"/>
       <use x="179.199219" xlink:href="#DejaVuSans-50"/>
       <use x="242.822266" xlink:href="#DejaVuSans-53"/>
      </g>
     </g>
    </g>
    <g id="ytick_8">
     <g id="line2d_14">
      <g>
       <use style="stroke:#000000;stroke-width:0.8;" x="58.523438" xlink:href="#m44fcea501d" y="29.939649"/>
      </g>
     </g>
     <g id="text_15">
      <!-- 0.00 -->
      <g transform="translate(29.257812 33.738868)scale(0.1 -0.1)">
       <use xlink:href="#DejaVuSans-48"/>
       <use x="63.623047" xlink:href="#DejaVuSans-46"/>
       <use x="95.410156" xlink:href="#DejaVuSans-48"/>
       <use x="159.033203" xlink:href="#DejaVuSans-48"/>
      </g>
     </g>
    </g>
    <g id="text_16">
     <!-- y -->
     <defs>
      <path d="M 32.171875 -5.078125 
Q 28.375 -14.84375 24.75 -17.8125 
Q 21.140625 -20.796875 15.09375 -20.796875 
L 7.90625 -20.796875 
L 7.90625 -13.28125 
L 13.1875 -13.28125 
Q 16.890625 -13.28125 18.9375 -11.515625 
Q 21 -9.765625 23.484375 -3.21875 
L 25.09375 0.875 
L 2.984375 54.6875 
L 12.5 54.6875 
L 29.59375 11.921875 
L 46.6875 54.6875 
L 56.203125 54.6875 
z
" id="DejaVuSans-121"/>
     </defs>
     <g transform="translate(14.798437 146.059375)rotate(-90)scale(0.1 -0.1)">
      <use xlink:href="#DejaVuSans-121"/>
     </g>
    </g>
   </g>
   <g id="line2d_15">
    <path clip-path="url(#p9f5dd08683)" d="M 88.959801 102.319063 
L 95.108561 105.304092 
L 101.257322 107.953405 
L 107.406082 110.421129 
L 113.554842 112.918561 
L 119.703603 115.513527 
L 125.852363 117.464941 
L 132.001123 119.46735 
L 138.149884 120.571159 
L 144.298644 121.535963 
L 150.447404 122.52186 
L 156.596165 123.076168 
L 162.744925 122.989466 
L 168.893685 122.579053 
L 175.042446 121.854429 
L 181.191206 120.538867 
L 187.339966 119.079134 
L 193.488727 117.470586 
L 199.637487 115.094747 
L 205.786247 112.703371 
L 211.935008 110.125491 
L 218.083768 106.785245 
L 224.232528 103.721148 
L 230.381289 99.977734 
L 236.530049 96.726803 
L 242.678809 92.41999 
L 248.82757 88.731061 
L 254.97633 84.458677 
L 261.12509 80.996114 
L 267.273851 76.54208 
L 273.422611 72.693513 
L 279.571371 69.01717 
L 285.720132 65.412515 
L 291.868892 61.960632 
L 298.017652 58.588999 
L 304.166413 55.706473 
L 310.315173 52.965083 
L 316.463933 50.712766 
L 322.612694 48.636144 
L 328.761454 47.283855 
L 334.910214 46.197787 
L 341.058975 45.426986 
L 347.207735 45.422744 
L 353.356495 45.635002 
L 359.505256 46.722638 
L 365.654016 47.765456 
L 371.802776 49.875437 
L 377.951537 51.933963 
L 384.100297 54.768212 
L 390.249057 58.516941 
L 396.397818 62.507277 
L 402.546578 66.94945 
L 408.695338 71.737626 
L 414.844099 77.256035 
L 420.992859 83.402262 
L 427.141619 89.530794 
L 433.29038 96.220998 
L 439.43914 103.106672 
L 445.5879 110.267803 
L 451.736661 118.186678 
L 457.885421 126.159649 
L 464.034181 134.084163 
L 470.182942 142.115387 
L 476.331702 150.121854 
L 482.480462 158.454405 
L 488.629223 166.790488 
L 494.777983 174.656187 
L 500.926743 182.86652 
L 507.075504 190.765058 
L 513.224264 198.167424 
L 519.373024 205.369531 
L 525.521785 212.604919 
L 531.670545 219.040835 
L 537.819305 225.476106 
L 543.968066 231.674315 
L 550.116826 236.934324 
L 556.265586 242.215953 
L 562.414347 246.301522 
L 568.563107 250.455358 
L 574.711867 253.297427 
L 580.860628 256.025136 
L 587.009388 258.396845 
L 593.158148 260.077113 
L 599.306909 261.485667 
L 605.455669 261.694031 
L 611.604429 261.649621 
L 617.75319 261.051649 
L 623.90195 259.93544 
L 630.05071 258.165211 
L 636.199471 256.064307 
L 642.348231 253.501333 
L 648.496991 250.316644 
L 654.645752 247.291172 
L 660.794512 243.132409 
L 666.943272 238.844999 
L 673.092033 234.446295 
L 679.240793 229.428262 
L 685.389553 224.468483 
L 691.538314 219.215444 
L 697.687074 214.051534 
" style="fill:none;stroke:#1e90ff;stroke-linecap:square;stroke-width:3;"/>
   </g>
   <g id="line2d_16">
    <defs>
     <path d="M 0 1.5 
C 0.397805 1.5 0.77937 1.341951 1.06066 1.06066 
C 1.341951 0.77937 1.5 0.397805 1.5 0 
C 1.5 -0.397805 1.341951 -0.77937 1.06066 -1.06066 
C 0.77937 -1.341951 0.397805 -1.5 0 -1.5 
C -0.397805 -1.5 -0.77937 -1.341951 -1.06066 -1.06066 
C -1.341951 -0.77937 -1.5 -0.397805 -1.5 0 
C -1.5 0.397805 -1.341951 0.77937 -1.06066 1.06066 
C -0.77937 1.341951 -0.397805 1.5 0 1.5 
z
" id="mdcb47df65c" style="stroke:#000000;"/>
    </defs>
    <g clip-path="url(#p9f5dd08683)">
     <use style="stroke:#000000;" x="88.959801" xlink:href="#mdcb47df65c" y="91.471355"/>
     <use style="stroke:#000000;" x="95.108561" xlink:href="#mdcb47df65c" y="123.473534"/>
     <use style="stroke:#000000;" x="101.257322" xlink:href="#mdcb47df65c" y="110.991114"/>
     <use style="stroke:#000000;" x="107.406082" xlink:href="#mdcb47df65c" y="86.720631"/>
     <use style="stroke:#000000;" x="113.554842" xlink:href="#mdcb47df65c" y="124.868106"/>
     <use style="stroke:#000000;" x="119.703603" xlink:href="#mdcb47df65c" y="125.483331"/>
     <use style="stroke:#000000;" x="125.852363" xlink:href="#mdcb47df65c" y="125.517611"/>
     <use style="stroke:#000000;" x="132.001123" xlink:href="#mdcb47df65c" y="119.075554"/>
     <use style="stroke:#000000;" x="138.149884" xlink:href="#mdcb47df65c" y="129.998373"/>
     <use style="stroke:#000000;" x="144.298644" xlink:href="#mdcb47df65c" y="96.313255"/>
     <use style="stroke:#000000;" x="150.447404" xlink:href="#mdcb47df65c" y="79.685194"/>
     <use style="stroke:#000000;" x="156.596165" xlink:href="#mdcb47df65c" y="113.564765"/>
     <use style="stroke:#000000;" x="162.744925" xlink:href="#mdcb47df65c" y="123.555131"/>
     <use style="stroke:#000000;" x="168.893685" xlink:href="#mdcb47df65c" y="125.391995"/>
     <use style="stroke:#000000;" x="175.042446" xlink:href="#mdcb47df65c" y="132.234735"/>
     <use style="stroke:#000000;" x="181.191206" xlink:href="#mdcb47df65c" y="126.047097"/>
     <use style="stroke:#000000;" x="187.339966" xlink:href="#mdcb47df65c" y="126.44017"/>
     <use style="stroke:#000000;" x="193.488727" xlink:href="#mdcb47df65c" y="126.185798"/>
     <use style="stroke:#000000;" x="199.637487" xlink:href="#mdcb47df65c" y="139.254853"/>
     <use style="stroke:#000000;" x="205.786247" xlink:href="#mdcb47df65c" y="104.875449"/>
     <use style="stroke:#000000;" x="211.935008" xlink:href="#mdcb47df65c" y="102.99615"/>
     <use style="stroke:#000000;" x="218.083768" xlink:href="#mdcb47df65c" y="107.997986"/>
     <use style="stroke:#000000;" x="224.232528" xlink:href="#mdcb47df65c" y="87.120848"/>
     <use style="stroke:#000000;" x="230.381289" xlink:href="#mdcb47df65c" y="98.780832"/>
     <use style="stroke:#000000;" x="236.530049" xlink:href="#mdcb47df65c" y="112.861582"/>
     <use style="stroke:#000000;" x="242.678809" xlink:href="#mdcb47df65c" y="68.401579"/>
     <use style="stroke:#000000;" x="248.82757" xlink:href="#mdcb47df65c" y="72.210862"/>
     <use style="stroke:#000000;" x="254.97633" xlink:href="#mdcb47df65c" y="80.530698"/>
     <use style="stroke:#000000;" x="261.12509" xlink:href="#mdcb47df65c" y="82.763988"/>
     <use style="stroke:#000000;" x="267.273851" xlink:href="#mdcb47df65c" y="63.300393"/>
     <use style="stroke:#000000;" x="273.422611" xlink:href="#mdcb47df65c" y="77.378667"/>
     <use style="stroke:#000000;" x="279.571371" xlink:href="#mdcb47df65c" y="64.403757"/>
     <use style="stroke:#000000;" x="285.720132" xlink:href="#mdcb47df65c" y="61.291591"/>
     <use style="stroke:#000000;" x="291.868892" xlink:href="#mdcb47df65c" y="59.254825"/>
     <use style="stroke:#000000;" x="298.017652" xlink:href="#mdcb47df65c" y="38.66556"/>
     <use style="stroke:#000000;" x="304.166413" xlink:href="#mdcb47df65c" y="47.058407"/>
     <use style="stroke:#000000;" x="310.315173" xlink:href="#mdcb47df65c" y="53.815384"/>
     <use style="stroke:#000000;" x="316.463933" xlink:href="#mdcb47df65c" y="22.997581"/>
     <use style="stroke:#000000;" x="322.612694" xlink:href="#mdcb47df65c" y="72.876443"/>
     <use style="stroke:#000000;" x="328.761454" xlink:href="#mdcb47df65c" y="36.417417"/>
     <use style="stroke:#000000;" x="334.910214" xlink:href="#mdcb47df65c" y="63.430587"/>
     <use style="stroke:#000000;" x="341.058975" xlink:href="#mdcb47df65c" y="27.223219"/>
     <use style="stroke:#000000;" x="347.207735" xlink:href="#mdcb47df65c" y="32.730879"/>
     <use style="stroke:#000000;" x="353.356495" xlink:href="#mdcb47df65c" y="19.554545"/>
     <use style="stroke:#000000;" x="359.505256" xlink:href="#mdcb47df65c" y="59.417219"/>
     <use style="stroke:#000000;" x="365.654016" xlink:href="#mdcb47df65c" y="29.000523"/>
     <use style="stroke:#000000;" x="371.802776" xlink:href="#mdcb47df65c" y="63.694973"/>
     <use style="stroke:#000000;" x="377.951537" xlink:href="#mdcb47df65c" y="35.859032"/>
     <use style="stroke:#000000;" x="384.100297" xlink:href="#mdcb47df65c" y="38.425084"/>
     <use style="stroke:#000000;" x="390.249057" xlink:href="#mdcb47df65c" y="71.56908"/>
     <use style="stroke:#000000;" x="396.397818" xlink:href="#mdcb47df65c" y="97.147265"/>
     <use style="stroke:#000000;" x="402.546578" xlink:href="#mdcb47df65c" y="75.643856"/>
     <use style="stroke:#000000;" x="408.695338" xlink:href="#mdcb47df65c" y="81.270751"/>
     <use style="stroke:#000000;" x="414.844099" xlink:href="#mdcb47df65c" y="63.974689"/>
     <use style="stroke:#000000;" x="420.992859" xlink:href="#mdcb47df65c" y="86.998156"/>
     <use style="stroke:#000000;" x="427.141619" xlink:href="#mdcb47df65c" y="104.390121"/>
     <use style="stroke:#000000;" x="433.29038" xlink:href="#mdcb47df65c" y="87.45403"/>
     <use style="stroke:#000000;" x="439.43914" xlink:href="#mdcb47df65c" y="60.263542"/>
     <use style="stroke:#000000;" x="445.5879" xlink:href="#mdcb47df65c" y="129.117492"/>
     <use style="stroke:#000000;" x="451.736661" xlink:href="#mdcb47df65c" y="120.566245"/>
     <use style="stroke:#000000;" x="457.885421" xlink:href="#mdcb47df65c" y="120.022953"/>
     <use style="stroke:#000000;" x="464.034181" xlink:href="#mdcb47df65c" y="134.614437"/>
     <use style="stroke:#000000;" x="470.182942" xlink:href="#mdcb47df65c" y="123.852125"/>
     <use style="stroke:#000000;" x="476.331702" xlink:href="#mdcb47df65c" y="141.552643"/>
     <use style="stroke:#000000;" x="482.480462" xlink:href="#mdcb47df65c" y="157.351238"/>
     <use style="stroke:#000000;" x="488.629223" xlink:href="#mdcb47df65c" y="176.478122"/>
     <use style="stroke:#000000;" x="494.777983" xlink:href="#mdcb47df65c" y="202.382175"/>
     <use style="stroke:#000000;" x="500.926743" xlink:href="#mdcb47df65c" y="164.185273"/>
     <use style="stroke:#000000;" x="507.075504" xlink:href="#mdcb47df65c" y="164.575423"/>
     <use style="stroke:#000000;" x="513.224264" xlink:href="#mdcb47df65c" y="191.977727"/>
     <use style="stroke:#000000;" x="519.373024" xlink:href="#mdcb47df65c" y="199.999829"/>
     <use style="stroke:#000000;" x="525.521785" xlink:href="#mdcb47df65c" y="209.180142"/>
     <use style="stroke:#000000;" x="531.670545" xlink:href="#mdcb47df65c" y="228.024627"/>
     <use style="stroke:#000000;" x="537.819305" xlink:href="#mdcb47df65c" y="229.46384"/>
     <use style="stroke:#000000;" x="543.968066" xlink:href="#mdcb47df65c" y="225.528208"/>
     <use style="stroke:#000000;" x="550.116826" xlink:href="#mdcb47df65c" y="247.911101"/>
     <use style="stroke:#000000;" x="556.265586" xlink:href="#mdcb47df65c" y="246.276802"/>
     <use style="stroke:#000000;" x="562.414347" xlink:href="#mdcb47df65c" y="231.187576"/>
     <use style="stroke:#000000;" x="568.563107" xlink:href="#mdcb47df65c" y="259.033577"/>
     <use style="stroke:#000000;" x="574.711867" xlink:href="#mdcb47df65c" y="263.383798"/>
     <use style="stroke:#000000;" x="580.860628" xlink:href="#mdcb47df65c" y="266.105015"/>
     <use style="stroke:#000000;" x="587.009388" xlink:href="#mdcb47df65c" y="237.228"/>
     <use style="stroke:#000000;" x="593.158148" xlink:href="#mdcb47df65c" y="257.928534"/>
     <use style="stroke:#000000;" x="599.306909" xlink:href="#mdcb47df65c" y="266.645455"/>
     <use style="stroke:#000000;" x="605.455669" xlink:href="#mdcb47df65c" y="257.38166"/>
     <use style="stroke:#000000;" x="611.604429" xlink:href="#mdcb47df65c" y="266.627303"/>
     <use style="stroke:#000000;" x="617.75319" xlink:href="#mdcb47df65c" y="216.931764"/>
     <use style="stroke:#000000;" x="623.90195" xlink:href="#mdcb47df65c" y="257.913493"/>
     <use style="stroke:#000000;" x="630.05071" xlink:href="#mdcb47df65c" y="250.049337"/>
     <use style="stroke:#000000;" x="636.199471" xlink:href="#mdcb47df65c" y="260.398377"/>
     <use style="stroke:#000000;" x="642.348231" xlink:href="#mdcb47df65c" y="250.929063"/>
     <use style="stroke:#000000;" x="648.496991" xlink:href="#mdcb47df65c" y="247.595781"/>
     <use style="stroke:#000000;" x="654.645752" xlink:href="#mdcb47df65c" y="250.586265"/>
     <use style="stroke:#000000;" x="660.794512" xlink:href="#mdcb47df65c" y="257.382485"/>
     <use style="stroke:#000000;" x="666.943272" xlink:href="#mdcb47df65c" y="211.045598"/>
     <use style="stroke:#000000;" x="673.092033" xlink:href="#mdcb47df65c" y="229.776522"/>
     <use style="stroke:#000000;" x="679.240793" xlink:href="#mdcb47df65c" y="215.630635"/>
     <use style="stroke:#000000;" x="685.389553" xlink:href="#mdcb47df65c" y="251.854657"/>
     <use style="stroke:#000000;" x="691.538314" xlink:href="#mdcb47df65c" y="250.137938"/>
     <use style="stroke:#000000;" x="697.687074" xlink:href="#mdcb47df65c" y="205.703457"/>
    </g>
   </g>
   <g id="patch_3">
    <path d="M 58.523438 279 
L 58.523438 7.2 
" style="fill:none;stroke:#000000;stroke-linecap:square;stroke-linejoin:miter;stroke-width:0.8;"/>
   </g>
   <g id="patch_4">
    <path d="M 728.123438 279 
L 728.123438 7.2 
" style="fill:none;stroke:#000000;stroke-linecap:square;stroke-linejoin:miter;stroke-width:0.8;"/>
   </g>
   <g id="patch_5">
    <path d="M 58.523438 279 
L 728.123438 279 
" style="fill:none;stroke:#000000;stroke-linecap:square;stroke-linejoin:miter;stroke-width:0.8;"/>
   </g>
   <g id="patch_6">
    <path d="M 58.523438 7.2 
L 728.123438 7.2 
" style="fill:none;stroke:#000000;stroke-linecap:square;stroke-linejoin:miter;stroke-width:0.8;"/>
   </g>
   <g id="legend_1">
    <g id="patch_7">
     <path d="M 659.7375 44.55625 
L 721.123438 44.55625 
Q 723.123438 44.55625 723.123438 42.55625 
L 723.123438 14.2 
Q 723.123438 12.2 721.123438 12.2 
L 659.7375 12.2 
Q 657.7375 12.2 657.7375 14.2 
L 657.7375 42.55625 
Q 657.7375 44.55625 659.7375 44.55625 
z
" style="fill:#ffffff;opacity:0.8;stroke:#cccccc;stroke-linejoin:miter;"/>
    </g>
    <g id="line2d_17">
     <path d="M 661.7375 20.298437 
L 681.7375 20.298437 
" style="fill:none;stroke:#1e90ff;stroke-linecap:square;stroke-width:3;"/>
    </g>
    <g id="line2d_18"/>
    <g id="text_17">
     <!-- True f -->
     <defs>
      <path d="M -0.296875 72.90625 
L 61.375 72.90625 
L 61.375 64.59375 
L 35.5 64.59375 
L 35.5 0 
L 25.59375 0 
L 25.59375 64.59375 
L -0.296875 64.59375 
z
" id="DejaVuSans-84"/>
      <path d="M 41.109375 46.296875 
Q 39.59375 47.171875 37.8125 47.578125 
Q 36.03125 48 33.890625 48 
Q 26.265625 48 22.1875 43.046875 
Q 18.109375 38.09375 18.109375 28.8125 
L 18.109375 0 
L 9.078125 0 
L 9.078125 54.6875 
L 18.109375 54.6875 
L 18.109375 46.1875 
Q 20.953125 51.171875 25.484375 53.578125 
Q 30.03125 56 36.53125 56 
Q 37.453125 56 38.578125 55.875 
Q 39.703125 55.765625 41.0625 55.515625 
z
" id="DejaVuSans-114"/>
      <path d="M 8.5 21.578125 
L 8.5 54.6875 
L 17.484375 54.6875 
L 17.484375 21.921875 
Q 17.484375 14.15625 20.5 10.265625 
Q 23.53125 6.390625 29.59375 6.390625 
Q 36.859375 6.390625 41.078125 11.03125 
Q 45.3125 15.671875 45.3125 23.6875 
L 45.3125 54.6875 
L 54.296875 54.6875 
L 54.296875 0 
L 45.3125 0 
L 45.3125 8.40625 
Q 42.046875 3.421875 37.71875 1 
Q 33.40625 -1.421875 27.6875 -1.421875 
Q 18.265625 -1.421875 13.375 4.4375 
Q 8.5 10.296875 8.5 21.578125 
z
M 31.109375 56 
z
" id="DejaVuSans-117"/>
      <path d="M 56.203125 29.59375 
L 56.203125 25.203125 
L 14.890625 25.203125 
Q 15.484375 15.921875 20.484375 11.0625 
Q 25.484375 6.203125 34.421875 6.203125 
Q 39.59375 6.203125 44.453125 7.46875 
Q 49.3125 8.734375 54.109375 11.28125 
L 54.109375 2.78125 
Q 49.265625 0.734375 44.1875 -0.34375 
Q 39.109375 -1.421875 33.890625 -1.421875 
Q 20.796875 -1.421875 13.15625 6.1875 
Q 5.515625 13.8125 5.515625 26.8125 
Q 5.515625 40.234375 12.765625 48.109375 
Q 20.015625 56 32.328125 56 
Q 43.359375 56 49.78125 48.890625 
Q 56.203125 41.796875 56.203125 29.59375 
z
M 47.21875 32.234375 
Q 47.125 39.59375 43.09375 43.984375 
Q 39.0625 48.390625 32.421875 48.390625 
Q 24.90625 48.390625 20.390625 44.140625 
Q 15.875 39.890625 15.1875 32.171875 
z
" id="DejaVuSans-101"/>
      <path id="DejaVuSans-32"/>
      <path d="M 37.109375 75.984375 
L 37.109375 68.5 
L 28.515625 68.5 
Q 23.6875 68.5 21.796875 66.546875 
Q 19.921875 64.59375 19.921875 59.515625 
L 19.921875 54.6875 
L 34.71875 54.6875 
L 34.71875 47.703125 
L 19.921875 47.703125 
L 19.921875 0 
L 10.890625 0 
L 10.890625 47.703125 
L 2.296875 47.703125 
L 2.296875 54.6875 
L 10.890625 54.6875 
L 10.890625 58.5 
Q 10.890625 67.625 15.140625 71.796875 
Q 19.390625 75.984375 28.609375 75.984375 
z
" id="DejaVuSans-102"/>
     </defs>
     <g transform="translate(689.7375 23.798437)scale(0.1 -0.1)">
      <use xlink:href="#DejaVuSans-84"/>
      <use x="60.865234" xlink:href="#DejaVuSans-114"/>
      <use x="101.978516" xlink:href="#DejaVuSans-117"/>
      <use x="165.357422" xlink:href="#DejaVuSans-101"/>
      <use x="226.880859" xlink:href="#DejaVuSans-32"/>
      <use x="258.667969" xlink:href="#DejaVuSans-102"/>
     </g>
    </g>
    <g id="line2d_19"/>
    <g id="line2d_20">
     <g>
      <use style="stroke:#000000;" x="671.7375" xlink:href="#mdcb47df65c" y="34.976562"/>
     </g>
    </g>
    <g id="text_18">
     <!-- Data -->
     <defs>
      <path d="M 19.671875 64.796875 
L 19.671875 8.109375 
L 31.59375 8.109375 
Q 46.6875 8.109375 53.6875 14.9375 
Q 60.6875 21.78125 60.6875 36.53125 
Q 60.6875 51.171875 53.6875 57.984375 
Q 46.6875 64.796875 31.59375 64.796875 
z
M 9.8125 72.90625 
L 30.078125 72.90625 
Q 51.265625 72.90625 61.171875 64.09375 
Q 71.09375 55.28125 71.09375 36.53125 
Q 71.09375 17.671875 61.125 8.828125 
Q 51.171875 0 30.078125 0 
L 9.8125 0 
z
" id="DejaVuSans-68"/>
      <path d="M 34.28125 27.484375 
Q 23.390625 27.484375 19.1875 25 
Q 14.984375 22.515625 14.984375 16.5 
Q 14.984375 11.71875 18.140625 8.90625 
Q 21.296875 6.109375 26.703125 6.109375 
Q 34.1875 6.109375 38.703125 11.40625 
Q 43.21875 16.703125 43.21875 25.484375 
L 43.21875 27.484375 
z
M 52.203125 31.203125 
L 52.203125 0 
L 43.21875 0 
L 43.21875 8.296875 
Q 40.140625 3.328125 35.546875 0.953125 
Q 30.953125 -1.421875 24.3125 -1.421875 
Q 15.921875 -1.421875 10.953125 3.296875 
Q 6 8.015625 6 15.921875 
Q 6 25.140625 12.171875 29.828125 
Q 18.359375 34.515625 30.609375 34.515625 
L 43.21875 34.515625 
L 43.21875 35.40625 
Q 43.21875 41.609375 39.140625 45 
Q 35.0625 48.390625 27.6875 48.390625 
Q 23 48.390625 18.546875 47.265625 
Q 14.109375 46.140625 10.015625 43.890625 
L 10.015625 52.203125 
Q 14.9375 54.109375 19.578125 55.046875 
Q 24.21875 56 28.609375 56 
Q 40.484375 56 46.34375 49.84375 
Q 52.203125 43.703125 52.203125 31.203125 
z
" id="DejaVuSans-97"/>
      <path d="M 18.3125 70.21875 
L 18.3125 54.6875 
L 36.8125 54.6875 
L 36.8125 47.703125 
L 18.3125 47.703125 
L 18.3125 18.015625 
Q 18.3125 11.328125 20.140625 9.421875 
Q 21.96875 7.515625 27.59375 7.515625 
L 36.8125 7.515625 
L 36.8125 0 
L 27.59375 0 
Q 17.1875 0 13.234375 3.875 
Q 9.28125 7.765625 9.28125 18.015625 
L 9.28125 47.703125 
L 2.6875 47.703125 
L 2.6875 54.6875 
L 9.28125 54.6875 
L 9.28125 70.21875 
z
" id="DejaVuSans-116"/>
     </defs>
     <g transform="translate(689.7375 38.476562)scale(0.1 -0.1)">
      <use xlink:href="#DejaVuSans-68"/>
      <use x="77.001953" xlink:href="#DejaVuSans-97"/>
      <use x="138.28125" xlink:href="#DejaVuSans-116"/>
      <use x="177.490234" xlink:href="#DejaVuSans-97"/>
     </g>
    </g>
   </g>
  </g>
 </g>
 <defs>
  <clipPath id="p9f5dd08683">
   <rect height="271.8" width="669.6" x="58.523438" y="7.2"/>
  </clipPath>
 </defs>
</svg>
